# Blender v2.65 (sub 0) OBJ File: 'sphere.blend'
# www.blender.org
o Cube_Cube.001
v 0.000000 -1.614923 -0.897778
v 1.069872 -1.614923 -0.897778
v 0.166730 -0.166729 -2.015195
v 0.000000 -0.166729 -2.015195
v 0.000000 1.614923 -0.897778
v -1.069872 1.614923 -0.897778
v -0.166730 0.166730 -2.015195
v 0.000000 0.166730 -2.015195
v 0.000000 -0.000001 6.718745
v 1.069872 1.614923 -0.897778
v 1.876376 0.000000 -0.897778
v -1.876376 0.000000 -0.897778
v -1.069872 -1.614923 -0.897778
v 0.000000 0.000000 -2.015195
v 0.292416 0.000000 -2.015195
v 0.166730 0.166730 -2.015195
v -0.166730 -0.166729 -2.015195
v -0.292416 0.000000 -2.015195
vn 0.000000 0.610885 0.791719
vn 0.000000 -0.610886 0.791719
vn -0.873671 -0.436318 -0.215234
vn 0.873671 -0.436318 -0.215234
vn 0.000000 -0.978252 -0.207418
vn 0.000000 0.000000 0.000000
vn 0.000000 0.978253 -0.207418
vn -0.873671 0.436318 -0.215234
vn 0.873671 0.436318 -0.215234
vn 0.000000 0.000000 1.000000
vn 0.544910 0.272132 0.793106
vn 0.528692 0.398544 0.749431
vn 0.458577 -0.345690 0.818661
vn 0.553954 -0.276648 0.785240
vn -0.544910 -0.272132 0.793106
vn -0.528692 -0.398544 0.749431
vn -0.458577 0.345690 0.818661
vn -0.553953 0.276648 0.785240
s off
f 1//1 2//1 3//1
f 1//1 3//1 4//1
f 5//2 6//2 7//2
f 5//2 7//2 8//2
f 9//3 10//3 11//3
f 9//4 12//4 6//4
f 10//5 9//5 6//5
f 10//6 6//6 5//6
f 13//7 9//7 2//7
f 2//6 1//6 13//6
f 2//8 9//8 11//8
f 9//9 13//9 12//9
f 14//10 15//10 16//10
f 14//10 16//10 8//10
f 4//10 3//10 15//10
f 4//10 15//10 14//10
f 12//11 13//11 17//11
f 12//12 17//12 18//12
f 18//13 7//13 6//13
f 18//14 6//14 12//14
f 11//15 10//15 16//15
f 11//16 16//16 15//16
f 15//17 3//17 2//17
f 15//18 2//18 11//18
f 13//1 1//1 4//1
f 13//1 4//1 17//1
f 10//2 5//2 8//2
f 10//2 8//2 16//2
f 18//10 14//10 8//10
f 18//10 8//10 7//10
f 17//10 4//10 14//10
f 17//10 14//10 18//10
