# Blender v2.64 (sub 0) OBJ File: 'export_to_float_array.blend'
# www.blender.org
o Cube_Cube.001
v -0.917519 -1.384954 0.769932
v 0.000000 0.000000 -5.761978
v 0.917519 -1.384954 0.769932
v -0.917519 1.384954 0.769932
v 0.917519 1.384954 0.769932
v -1.609175 0.000000 0.769932
v 1.609175 0.000000 0.769932
v -0.142987 -0.142987 1.728226
v 0.142987 -0.142987 1.728226
v -0.142987 0.142987 1.728226
v 0.142987 0.142987 1.728226
v -0.250775 0.000000 1.728226
v 0.250775 0.000000 1.728226
v 0.000000 1.384954 0.769932
v 0.000000 -1.384954 0.769932
v 0.000000 0.142987 1.728226
v 0.000000 -0.142987 1.728226
v 0.000000 0.000000 1.728226
vn 0.000000 0.610886 0.791719
vn 0.000000 -0.610886 0.791719
vn -0.873671 -0.436318 -0.215234
vn 0.873671 -0.436318 -0.215234
vn -0.000000 -0.978252 -0.207418
vn 0.000000 0.978252 -0.207418
vn -0.873671 0.436318 -0.215234
vn 0.873671 0.436318 -0.215234
vn 0.000000 -0.000000 1.000000
vn 0.543779 0.284514 0.789529
vn 0.543779 -0.284514 0.789529
vn -0.543779 -0.284514 0.789529
vn -0.543779 0.284514 0.789529
s off
f 14//1 4//1 10//1
f 14//1 10//1 16//1
f 15//2 3//2 9//2
f 15//2 9//2 17//2
f 2//3 1//3 6//3
f 2//4 7//4 3//4
f 1//5 2//5 3//5
f 1//5 3//5 15//5
f 5//6 2//6 4//6
f 5//6 4//6 14//6
f 4//7 2//7 6//7
f 2//8 5//8 7//8
f 18//9 12//9 8//9
f 18//9 8//9 17//9
f 16//9 10//9 12//9
f 16//9 12//9 18//9
f 7//10 5//10 11//10
f 7//10 11//10 13//10
f 13//11 9//11 3//11
f 13//11 3//11 7//11
f 6//12 1//12 8//12
f 6//12 8//12 12//12
f 12//13 10//13 4//13
f 12//13 4//13 6//13
f 5//1 14//1 16//1
f 5//1 16//1 11//1
f 1//2 15//2 17//2
f 1//2 17//2 8//2
f 13//9 18//9 17//9
f 13//9 17//9 9//9
f 11//9 16//9 18//9
f 11//9 18//9 13//9
